# xmcd
#
# Track frame offsets:
#	150
#	30777
#	55850
#	152752
#	179334
#	235619
#	270987
#	307444
#
# Disc length: 4383 seconds
#
# Revision: 0
# Processed by: cddbd v1.5.2PL0 Copyright (c) Steve Scherf et al.
# Submitted via: audiograbber 1.83.01
#
DISCID=5c111d08
DTITLE=Grateful Dead - 77-05-28 Hartford Civic Centre, Hartford Ct
DYEAR=1900
DGENRE=
TTITLE0=Bertha
TTITLE1=Good Lovin
TTITLE2=Sugaree
TTITLE3=Jack Straw
TTITLE4=Row Jimmy
TTITLE5=New Minglewood Blues
TTITLE6=Candyman
TTITLE7=Passenger
EXTD=
EXTT0=
EXTT1=
EXTT2=
EXTT3=
EXTT4=
EXTT5=
EXTT6=
EXTT7=
PLAYORDER=
